#define c4805bfbfb3f4555c1524d0d31e571e7tR2OT61w8VYMbVJi_width 20
#define c4805bfbfb3f4555c1524d0d31e571e7tR2OT61w8VYMbVJi_height 40
static char c4805bfbfb3f4555c1524d0d31e571e7tR2OT61w8VYMbVJi_bits[] = {
  0x24, 0xB0, 0x00, 0x24, 0xA0, 0x00, 0x24, 0xB0, 0x00, 0x24, 0x90, 0x00, 
  0x26, 0x90, 0x01, 0x66, 0x18, 0x01, 0x42, 0x0C, 0x01, 0x42, 0x0C, 0x03, 
  0x42, 0x04, 0x02, 0x42, 0x04, 0x02, 0xC2, 0x06, 0x02, 0x82, 0x02, 0x06, 
  0x82, 0x02, 0x06, 0x82, 0x03, 0x04, 0x82, 0x01, 0x04, 0x82, 0x01, 0x06, 
  0x02, 0x00, 0x02, 0x06, 0x00, 0x02, 0x04, 0x00, 0x03, 0x04, 0x00, 0x01, 
  0x04, 0x00, 0x01, 0x0C, 0x80, 0x01, 0x18, 0x80, 0x00, 0x10, 0xC0, 0x00, 
  0x30, 0x60, 0x00, 0x20, 0x20, 0x00, 0x60, 0x30, 0x00, 0x60, 0x18, 0x00, 
  0x40, 0x18, 0x00, 0xC0, 0x0C, 0x00, 0xC0, 0x04, 0x00, 0x80, 0x06, 0x00, 
  0x80, 0x02, 0x00, 0x80, 0x03, 0x00, 0x80, 0x01, 0x00, 0x80, 0x01, 0x00, 
  0x80, 0x01, 0x00, 0x00, 0x00, 0x00, 0x00, 0x00, 0x00, 0x00, 0x00, 0x00, 
  };
