#define flame_width 20
#define flame_height 40
static char flame_bits[] = {
  0x00, 0x04, 0x00, 0x00, 0x82, 0x00, 0x48, 0x00, 0x00, 0x40, 0x82, 0x00, 
  0x48, 0x81, 0x00, 0x00, 0x04, 0x00, 0x84, 0x90, 0x00, 0x24, 0x01, 0x00, 
  0x20, 0x01, 0x00, 0x08, 0xE2, 0x00, 0x28, 0x8A, 0x00, 0x40, 0x00, 0x00, 
  0x40, 0x89, 0x00, 0x20, 0x41, 0x00, 0x28, 0x50, 0x00, 0x80, 0x42, 0x00, 
  0xB0, 0x22, 0x00, 0x00, 0x38, 0x00, 0x10, 0x32, 0x00, 0x80, 0x10, 0x00, 
  0x30, 0x19, 0x00, 0x10, 0x34, 0x00, 0xB0, 0x30, 0x00, 0x30, 0x2C, 0x00, 
  0x30, 0x36, 0x00, 0x70, 0x18, 0x00, 0x70, 0x18, 0x00, 0x70, 0x1C, 0x00, 
  0xF0, 0x0C, 0x00, 0xB0, 0x0D, 0x00, 0x60, 0x0C, 0x00, 0x60, 0x0D, 0x00, 
  0x60, 0x0D, 0x00, 0xC0, 0x0E, 0x00, 0xC0, 0x07, 0x00, 0xC0, 0x07, 0x00, 
  0x80, 0x07, 0x00, 0x00, 0x03, 0x00, 0x00, 0x03, 0x00, 0x00, 0x03, 0x00, 
  };
