#define ab839a3edc5b4cbaccfdc8283b59468bR2Qy4wT2WF6WxAJE_width 20
#define ab839a3edc5b4cbaccfdc8283b59468bR2Qy4wT2WF6WxAJE_height 40
static char ab839a3edc5b4cbaccfdc8283b59468bR2Qy4wT2WF6WxAJE_bits[] = {
  0x20, 0x30, 0x00, 0x20, 0x20, 0x00, 0x20, 0x30, 0x00, 0x20, 0x10, 0x00, 
  0x20, 0x10, 0x00, 0x60, 0x18, 0x00, 0x40, 0x0C, 0x00, 0x40, 0x0C, 0x00, 
  0x40, 0x04, 0x00, 0x40, 0x04, 0x00, 0xC0, 0x06, 0x00, 0x80, 0x02, 0x00, 
  0x80, 0x02, 0x00, 0x80, 0x03, 0x00, 0x80, 0x01, 0x00, 0x80, 0x01, 0x00, 
  0x00, 0x00, 0x00, 0x00, 0x00, 0x00, 0x00, 0x00, 0x00, 0x00, 0x00, 0x00, 
  0x00, 0x00, 0x00, 0x00, 0x00, 0x00, 0x00, 0x00, 0x00, 0x00, 0x00, 0x00, 
  0x00, 0x00, 0x00, 0x00, 0x00, 0x00, 0x00, 0x00, 0x00, 0x00, 0x00, 0x00, 
  0x00, 0x00, 0x00, 0x00, 0x00, 0x00, 0x00, 0x00, 0x00, 0x00, 0x00, 0x00, 
  0x00, 0x00, 0x00, 0x00, 0x00, 0x00, 0x00, 0x00, 0x00, 0x00, 0x00, 0x00, 
  0x00, 0x00, 0x00, 0x00, 0x00, 0x00, 0x00, 0x00, 0x00, 0x00, 0x00, 0x00, 
  };
